<svg width="137" height="31" viewBox="0 0 137 31" fill="none" xmlns="http://www.w3.org/2000/svg">
<path d="M15.6886 30.9998C21.1934 30.9998 25.7348 26.5809 25.7348 21.0744C25.7348 15.6358 21.2622 11.1489 15.6886 11.1489C18.0969 11.1489 20.0924 13.0524 20.0924 15.4318C20.0924 20.8704 15.6198 25.3573 10.0462 25.3573C4.47263 25.4252 0 20.9384 0 15.4998C0 24.0656 7.01858 30.9998 15.6886 30.9998Z" fill="#E0B506"/>
<path d="M11.2848 15.5C11.2848 10.0614 15.7574 5.57456 21.331 5.57456C26.9046 5.57456 31.3772 9.99342 31.3772 15.5C31.3772 6.93421 24.3586 0 15.6886 0C10.1838 0 5.6424 4.41886 5.6424 9.92544C5.6424 15.364 10.115 19.8509 15.6886 19.8509C13.2803 19.7829 11.2848 17.8794 11.2848 15.5Z" fill="#E0B506"/>
<path d="M0 15.5C0 20.9386 4.47263 25.4254 10.0462 25.4254C15.551 25.4254 20.0924 21.0066 20.0924 15.5C20.0924 17.8794 18.1657 19.8509 15.7574 19.8509C10.2526 19.8509 5.7112 15.432 5.7112 9.92544C5.64239 4.41886 10.115 0 15.6886 0C7.01858 0 0 6.93421 0 15.5Z" fill="#203C7C"/>
<path d="M15.6886 11.1493C21.1934 11.1493 25.7348 15.5681 25.7348 21.0747C25.7348 26.5133 21.2622 31.0001 15.6886 31.0001C24.3586 31.0001 31.3772 24.0659 31.3772 15.5001C31.3772 10.0616 26.9046 5.57471 21.331 5.57471C15.8262 5.57471 11.2848 9.99357 11.2848 15.5001C11.2848 13.1208 13.2803 11.1493 15.6886 11.1493Z" fill="#203C7C"/>
<path d="M136.656 19.9868H126.266V9.38153C126.266 9.17758 126.059 8.97363 125.853 8.97363H123.582C123.376 8.97363 123.169 9.17758 123.169 9.38153V21.9583C123.169 22.1622 123.376 22.3662 123.582 22.3662H123.926H135.142C135.417 22.3662 135.83 22.1622 135.968 21.8903L136.931 20.3947C137.069 20.1907 136.931 19.9868 136.656 19.9868Z" fill="#203C7C"/>
<path d="M81.9523 21.8903C81.9523 22.0942 82.1587 22.2982 82.3651 22.2982H84.6358C84.8423 22.2982 85.0487 22.0942 85.0487 21.8903V9.38153C85.0487 9.17758 84.8423 8.97363 84.6358 8.97363H82.3651C82.1587 8.97363 81.9523 9.17758 81.9523 9.38153V21.8903Z" fill="#203C7C"/>
<path d="M120.417 19.9868H110.095V9.38153C110.095 9.17758 109.889 8.97363 109.683 8.97363H107.412C107.205 8.97363 106.999 9.17758 106.999 9.38153V21.9583C106.999 22.1622 107.205 22.3662 107.412 22.3662H107.756H118.972C119.247 22.3662 119.66 22.1622 119.798 21.8903L120.761 20.3947C120.83 20.1907 120.761 19.9868 120.417 19.9868Z" fill="#203C7C"/>
<path d="M60.2772 19.9869H49.0613V16.8597H55.3918C55.667 16.8597 56.0799 16.6558 56.2175 16.3838L57.112 14.8882C57.2496 14.6163 57.1808 14.4123 56.8368 14.4123H50.5063C50.231 14.4123 49.8182 14.6163 49.6806 14.8882L48.9925 15.9759V11.3531H57.8689C58.1441 11.3531 58.557 11.1492 58.6946 10.8773L59.5892 9.38164C59.7268 9.10971 59.658 8.90576 59.3139 8.90576H48.1668C46.9282 8.90576 45.9648 9.85752 45.9648 11.0812V21.8904C45.9648 22.0944 46.1713 22.2983 46.3777 22.2983H58.8322C59.1075 22.2983 59.5203 22.0944 59.658 21.8224L60.5525 20.3948C60.6901 20.1909 60.5525 19.9869 60.2772 19.9869Z" fill="#203C7C"/>
<path d="M103.765 19.9869H92.549V16.8597H98.8795C99.1547 16.8597 99.5676 16.6558 99.7052 16.3838L100.6 14.8882C100.737 14.6163 100.669 14.4123 100.324 14.4123H93.994C93.7187 14.4123 93.3059 14.6163 93.1683 14.8882L92.4802 15.9759V11.3531H101.357C101.632 11.3531 102.045 11.1492 102.182 10.8773L103.146 9.38164C103.283 9.10971 103.214 8.90576 102.87 8.90576H91.5856C90.3471 8.90576 89.3837 9.85752 89.3837 11.0812V21.8904C89.3837 22.0944 89.5902 22.2983 89.7966 22.2983H102.251C102.526 22.2983 102.939 22.0944 103.077 21.8224L103.971 20.3268C104.178 20.1909 104.04 19.9869 103.765 19.9869Z" fill="#203C7C"/>
<path d="M77.6861 11.1491C77.6861 9.92539 76.6539 8.97363 75.4842 8.97363H65.3004C64.0618 8.97363 63.0984 9.99337 63.0984 11.2171V21.9583C63.0984 22.1622 63.3049 22.3662 63.5113 22.3662H65.782C65.9885 22.3662 66.1949 22.1622 66.1949 21.9583V17.6754H72.7318L74.3832 21.9583C74.452 22.1622 74.7273 22.3662 74.9337 22.3662H77.4109C77.6173 22.3662 77.7549 22.1622 77.6861 21.9583L76.0347 17.6074C76.998 17.3355 77.7549 16.5197 77.7549 15.432V11.1491H77.6861ZM66.8142 15.7719L66.1261 16.8596V11.353H74.5209V15.364H67.6399C67.3647 15.296 67.0206 15.4999 66.8142 15.7719Z" fill="#203C7C"/>
</svg>
